<svg width="392" height="416" viewBox="0 0 392 416" fill="none" xmlns="http://www.w3.org/2000/svg">
<path d="M228.888 415.675C181.898 415.675 141.102 406.495 106.5 388.136C72.3255 369.777 46.0538 344.8 27.685 313.206C9.31613 281.184 0.131714 245.32 0.131714 205.613C0.131714 166.333 10.3841 131.11 30.8888 99.9419C51.8208 68.7742 80.0148 44.4378 115.471 26.9326C151.354 9.4275 191.296 0.674927 235.296 0.674927C255.373 0.674927 275.237 2.59622 294.888 6.43882C314.538 9.85446 330.344 14.551 342.305 20.5283C345.722 22.6631 347.858 24.5844 348.712 26.2922C349.567 28 350.208 30.9887 350.635 35.2583L356.402 114.672C356.402 116.38 355.334 117.447 353.198 117.874C351.062 118.301 349.567 117.874 348.712 116.593C335.897 84.5715 317.528 59.8082 293.606 42.303C269.684 24.7979 241.49 16.0453 209.024 16.0453C163.743 16.0453 128.5 30.9887 103.296 60.8755C78.0925 90.7624 65.4906 131.11 65.4906 181.917C65.4906 225.467 73.3935 264.106 89.1992 297.835C105.005 331.138 126.791 356.969 154.558 375.328C182.325 393.687 213.723 402.866 248.752 402.866C265.412 402.866 278.227 400.732 287.198 396.462C296.169 392.192 302.577 384.721 306.421 374.047C310.266 363.373 312.188 347.789 312.188 327.295C312.188 305.948 310.266 290.791 306.421 281.825C303.004 272.432 296.383 266.241 286.557 263.252C276.732 260.263 260.499 258.769 237.859 258.769C235.723 258.769 234.655 257.061 234.655 253.646C234.655 250.23 235.509 248.522 237.218 248.522C270.538 250.657 298.732 251.724 321.8 251.724C343.159 251.724 365.373 251.084 388.44 249.803C390.149 249.803 391.004 251.297 391.004 254.286C391.431 257.275 390.79 258.769 389.081 258.769C382.673 258.342 378.188 259.409 375.625 261.971C373.062 264.106 371.353 268.376 370.499 274.78C369.644 281.184 369.217 292.072 369.217 307.442V333.7C369.217 352.913 369.858 366.362 371.14 374.047C372.421 381.732 373.062 387.069 373.062 390.058C373.062 392.619 372.635 394.327 371.78 395.181C371.353 396.035 369.858 396.889 367.295 397.743C314.324 409.698 268.189 415.675 228.888 415.675Z" fill="#272727"/>
</svg>
