<svg width="1689" height="8595" viewBox="0 0 1689 8595" fill="none" xmlns="http://www.w3.org/2000/svg">
<path opacity="0.2" d="M-420.495 7161.13L-419.66 7158.63C102.379 7255.3 74.8376 7493.1 44.8102 7745.07C22.4604 7933.72 0.00476586 8128.65 201.38 8280.78C363.081 8402.92 493.779 8357.17 645.091 8303.97C754.646 8265.79 878.171 8222.2 1032.28 8238.14C1208.69 8256.47 1396.77 8350.07 1606.9 8524.41L1604.09 8526.12C1394.75 8352.42 1207.32 8259.08 1032.1 8240.92C879.709 8225.04 756.058 8268.26 647.033 8306.34C494.131 8359.85 362.497 8406.16 198.575 8282.49C-4.23855 8129.46 18.6217 7934.06 40.8455 7745.04C70.7204 7494.27 98.5133 7257.22 -420.495 7161.13Z" fill="#ABABAB"/>
<path opacity="0.2" d="M1583.75 -942.846C1150.92 -927.012 231.35 -724.546 15.75 -41.3457C-199.85 641.854 510.583 1379.65 892.75 1663.15C1303.92 1934.49 1879.55 3039.65 892.75 5289.65C-340.75 8102.15 -174.75 8316.65 892.75 9748.65L1686.25 10777.7C1419.58 10813 911.85 11083.1 1014.25 11880.7C1116.65 12678.3 19.5833 13602.7 -541.75 13965.2" stroke="#ABABAB" stroke-width="2"/>
<path opacity="0.2" d="M-1446.25 -852.346C-1013.42 -836.512 -93.85 -634.046 121.75 49.1543C337.35 732.354 -373.083 1470.15 -755.25 1753.65C-1166.42 2024.99 -1742.05 3130.15 -755.25 5380.15C478.25 8192.65 312.25 8407.15 -755.25 9839.15" stroke="#ABABAB" stroke-width="2"/>
</svg>
